<?xml version="1.0" encoding="iso-8859-1"?>
<svg id="Layer_1" xmlns="http://www.w3.org/2000/svg" viewBox="0 0 24 24"><path d="M23.6,12.24l-2.94-3.9a.75.75,0,0,0-.6-.3H15.37V4a.75.75,0,0,0-.75-.75H1A.75.75,0,0,0,.25,4V17a.75.75,0,0,0,.75.75h.83a2.22,2.22,0,0,0-.14.75,2.25,2.25,0,0,0,4.5,0,2.22,2.22,0,0,0-.14-.75h9.35a2.22,2.22,0,0,0-.14.75,2.25,2.25,0,1,0,4.5,0,2.22,2.22,0,0,0-.14-.75H23a.75.75,0,0,0,.75-.75V12.69A.75.75,0,0,0,23.6,12.24ZM1.75,4.75H13.87v11.5H1.75ZM4.69,18.5a.75.75,0,1,1-.75-.75A.75.75,0,0,1,4.69,18.5Zm13.58,0a.75.75,0,1,1-.75-.75A.75.75,0,0,1,18.27,18.5Zm4-2.25H15.37V9.54h4.31l2.57,3.4Z"/></svg>
