<?xml version="1.0" encoding="iso-8859-1"?>
<svg id="Layer_1" xmlns="http://www.w3.org/2000/svg" viewBox="0 0 24 24"><path d="M10,10.75H6A.75.75,0,0,1,5.25,10V6A.75.75,0,0,1,6,5.25h4a.75.75,0,0,1,.75.75v4A.75.75,0,0,1,10,10.75ZM6.75,9.25h2.5V6.75H6.75Z"/><path d="M18,10.75H14a.75.75,0,0,1-.75-.75V6A.75.75,0,0,1,14,5.25h4a.75.75,0,0,1,.75.75v4A.75.75,0,0,1,18,10.75Zm-3.25-1.5h2.5V6.75h-2.5Z"/><path d="M10,18.75H6A.75.75,0,0,1,5.25,18V14A.75.75,0,0,1,6,13.25h4a.75.75,0,0,1,.75.75v4A.75.75,0,0,1,10,18.75Zm-3.25-1.5h2.5v-2.5H6.75Z"/><path d="M18,18.75H14a.75.75,0,0,1-.75-.75V14a.75.75,0,0,1,.75-.75h4a.75.75,0,0,1,.75.75v4A.75.75,0,0,1,18,18.75Zm-3.25-1.5h2.5v-2.5h-2.5Z"/></svg>
