<svg id="Layer_1" data-name="Layer 1" xmlns="http://www.w3.org/2000/svg" viewBox="0 0 12 12"><defs><style>.cls-1{fill:#ff6252;}</style></defs><title> </title><path class="cls-1" d="M4.66,7.34a2.75,2.75,0,0,0,3.88,0L11.2,4.68A2.74,2.74,0,0,0,7.32.8L5.93,2.19a.5.5,0,0,0,.71.71L8,1.51A1.74,1.74,0,0,1,10.49,4L7.83,6.63a1.75,1.75,0,0,1-2.46,0,.5.5,0,1,0-.71.71Z"/><path class="cls-1" d="M7.34,4.66a2.75,2.75,0,0,0-3.88,0L.8,7.32A2.74,2.74,0,0,0,4.68,11.2L6.07,9.81a.5.5,0,1,0-.71-.71L4,10.49A1.74,1.74,0,0,1,1.51,8L4.17,5.37a1.75,1.75,0,0,1,2.46,0,.5.5,0,1,0,.71-.71Z"/></svg>