<?xml version="1.0" encoding="iso-8859-1"?>
<svg id="Layer_1" xmlns="http://www.w3.org/2000/svg" viewBox="0 0 24 24"><path d="M23.75,11.81a3.62,3.62,0,0,0-2.6-3.41C19.94,3.49,16.87,1,12,1S4.06,3.49,2.85,8.4A3.53,3.53,0,0,0,2.27,15V19.4a.75.75,0,0,0,.75.75H4.31v2.1a.75.75,0,0,0,.75.75h3a.75.75,0,0,0,.75-.75v-2.1h6.44v2.1A.75.75,0,0,0,16,23h3a.75.75,0,0,0,.75-.75v-2.1H21a.75.75,0,0,0,.75-.75V15A3.58,3.58,0,0,0,23.75,11.81ZM12,2.5c4,0,6.42,1.9,7.54,5.75a3.65,3.65,0,0,0-3.29,3.56V13H7.75V11.81A3.65,3.65,0,0,0,4.46,8.25C5.58,4.4,8,2.5,12,2.5Zm-4.69,19H5.81V20.15h1.5Zm10.94,0h-1.5V20.15h1.5ZM20,13.91a.75.75,0,0,0,0,1.5l.23,0v3.26H3.77V15.39l.23,0a.75.75,0,1,0,0-1.5,2.18,2.18,0,0,1-2.25-2.1A2.18,2.18,0,0,1,4,9.71a2.18,2.18,0,0,1,2.25,2.1v1.9a.75.75,0,0,0,.75.75H17a.75.75,0,0,0,.75-.75v-1.9a2.26,2.26,0,0,1,4.5,0A2.18,2.18,0,0,1,20,13.91Z"/></svg>
