<?xml version="1.0" encoding="iso-8859-1"?>
<svg id="Layer_1" xmlns="http://www.w3.org/2000/svg" viewBox="0 0 24 24"><path d="M23,14.95l-2.39-1.38a8.83,8.83,0,0,0,0-3.14L23,9.05a.75.75,0,0,0,.27-1l-2.2-3.8a.75.75,0,0,0-1-.27L17.66,5.33a8.79,8.79,0,0,0-2.72-1.57V1A.75.75,0,0,0,14.2.25H9.8A.75.75,0,0,0,9.05,1V3.78a8.76,8.76,0,0,0-2.7,1.56L3.95,3.95a.75.75,0,0,0-1,.27L.73,8a.75.75,0,0,0,.27,1l2.4,1.39a8.34,8.34,0,0,0,0,3.13L1,14.95a.75.75,0,0,0-.27,1l2.2,3.8a.75.75,0,0,0,.46.35.76.76,0,0,0,.57-.08l2.39-1.38a8.8,8.8,0,0,0,2.72,1.57V23a.75.75,0,0,0,.75.75H14.2a.75.75,0,0,0,.75-.75V20.24a8.79,8.79,0,0,0,2.72-1.57l2.39,1.38a.76.76,0,0,0,.57.08.75.75,0,0,0,.46-.35l2.2-3.8a.75.75,0,0,0-.27-1Zm-2.85,3.43L18,17.12a.75.75,0,0,0-.93.09A7.27,7.27,0,0,1,14,19a.75.75,0,0,0-.54.72v2.56H10.55V19.7A.75.75,0,0,0,10,19a7.27,7.27,0,0,1-3-1.71l-.08-.07a.75.75,0,0,0-.88-.09L3.85,18.38,2.4,15.87,4.61,14.6A.76.76,0,0,0,5,13.87a.72.72,0,0,0,0-.11,7.32,7.32,0,0,1,0-3.52s0,0,0,0A.72.72,0,0,0,5,10a.85.85,0,0,0-.12-.4l-.09-.1a.72.72,0,0,0-.12-.11l0,0L2.4,8.13l1.45-2.5L6.06,6.9h0L6.26,7l.12,0h.05l.12,0,.11,0,.15-.08.1-.06,0,0A7.27,7.27,0,0,1,10,5l0,0,.13-.07.12-.08.09-.1a.74.74,0,0,0,.08-.12.73.73,0,0,0,0-.13.72.72,0,0,0,0-.15s0,0,0,0V1.75h2.89V4.21A.75.75,0,0,0,14,5a7.26,7.26,0,0,1,3,1.71l.08.07a.75.75,0,0,0,.88.09l2.21-1.28,1.45,2.5L19.44,9.37a.75.75,0,0,0-.41.86,7.31,7.31,0,0,1,0,3.53.75.75,0,0,0,.35.83l2.21,1.28Z"/><path d="M12,8.25A3.75,3.75,0,1,0,15.75,12,3.75,3.75,0,0,0,12,8.25Zm0,6A2.25,2.25,0,1,1,14.25,12,2.25,2.25,0,0,1,12,14.25Z"/></svg>
