<?xml version="1.0" encoding="iso-8859-1"?>
<svg id="Layer_1" xmlns="http://www.w3.org/2000/svg" viewBox="0 0 24 24"><path d="M19.65,4H16.5V2a.75.75,0,0,0-.75-.75H8.25A.75.75,0,0,0,7.5,2V4H4.35a.75.75,0,0,0-.75.75V7.9a.75.75,0,0,0,.75.75h.46V22a.75.75,0,0,0,.75.75H18.44a.75.75,0,0,0,.75-.75V8.65h.46a.75.75,0,0,0,.75-.75V4.74A.75.75,0,0,0,19.65,4ZM9,2.75h6V4H9ZM5.1,5.49H18.9V7.15H5.1ZM17.69,21.25H6.31V8.65H17.69Z"/><path d="M8.49,19.74A.75.75,0,0,0,9.24,19V11.6a.75.75,0,0,0-1.5,0V19A.75.75,0,0,0,8.49,19.74Z"/><path d="M12,19.74a.75.75,0,0,0,.75-.75V11.6a.75.75,0,0,0-1.5,0V19A.75.75,0,0,0,12,19.74Z"/><path d="M15.51,19.74a.75.75,0,0,0,.75-.75V11.6a.75.75,0,0,0-1.5,0V19A.75.75,0,0,0,15.51,19.74Z"/></svg>
