<?xml version="1.0" encoding="iso-8859-1"?>
<svg id="Layer_1" xmlns="http://www.w3.org/2000/svg" viewBox="0 0 24 24"><path d="M23,5.18a9,9,0,0,1-2.59.71,4.52,4.52,0,0,0,2-2.49,9,9,0,0,1-2.87,1.09,4.52,4.52,0,0,0-7.81,3.09,4.26,4.26,0,0,0,.12,1,12.78,12.78,0,0,1-9.3-4.71,4.46,4.46,0,0,0-.61,2.27,4.51,4.51,0,0,0,2,3.75,4.53,4.53,0,0,1-2-.56v.06A4.51,4.51,0,0,0,5.5,13.83,4.44,4.44,0,0,1,4.32,14a4.71,4.71,0,0,1-.85-.08A4.51,4.51,0,0,0,7.68,17,9,9,0,0,1,2.08,19,9.1,9.1,0,0,1,1,18.91a12.8,12.8,0,0,0,6.92,2A12.75,12.75,0,0,0,20.76,8.1c0-.2,0-.39,0-.59A9.13,9.13,0,0,0,23,5.18"/></svg>
