<?xml version="1.0" encoding="iso-8859-1"?>
<svg id="Layer_1" xmlns="http://www.w3.org/2000/svg" viewBox="0 0 24 24"><path d="M8.91,20.42c-2.22,0-3.82-1.41-3.82-3.1s2-3,4.21-3a4.83,4.83,0,0,1,1.44.23c1.2.84,2.07,1.31,2.31,2.27a2.61,2.61,0,0,1,.07.6c0,1.69-1.08,3-4.21,3m.58-9.9C8,10.47,6.59,8.85,6.33,6.89s.74-3.46,2.23-3.41,2.91,1.61,3.16,3.57S11,10.56,9.5,10.52m3.09,2.9c-.52-.37-1.52-1.27-1.52-1.8s.18-.92,1.11-1.65a3.88,3.88,0,0,0,1.63-3A3.45,3.45,0,0,0,11.94,3.6h1.84l1.29-.93H9.28c-2.59,0-5,2-5,4.24a4.18,4.18,0,0,0,4.41,4.2l.54,0a2.37,2.37,0,0,0-.3,1.08,2.25,2.25,0,0,0,.79,1.6h-1c-3.21,0-5.69,2-5.69,4.17s2.71,3.39,5.92,3.39c3.67,0,5.69-2.07,5.69-4.16a4,4,0,0,0-2-3.76M21,10.69H18.75V8.44H16.93v2.25H14.68V12.5h2.25v2.25h1.81V12.5H21Z"/></svg>
