<?xml version="1.0" encoding="iso-8859-1"?>
<svg id="Layer_1" xmlns="http://www.w3.org/2000/svg" viewBox="0 0 24 24"><path d="M22,1.25H2A.75.75,0,0,0,1.25,2V22a.75.75,0,0,0,.75.75H22a.75.75,0,0,0,.75-.75V2A.75.75,0,0,0,22,1.25Zm-.75,1.5v9.58L18.47,10.1a.75.75,0,0,0-1,0l-5.6,5.34L7.42,13a.75.75,0,0,0-.89.11L2.75,16.71v-14ZM2.75,21.25V18.79l4.42-4.25,4.46,2.51a.75.75,0,0,0,.89-.11L18,11.68l3.21,2.58v7Z"/><path d="M7.38,10.23a2.85,2.85,0,0,0,2-4.86,2.91,2.91,0,0,0-4,0,2.85,2.85,0,0,0,2,4.86Zm-1-3.8a1.35,1.35,0,1,1-.39,1A1.34,1.34,0,0,1,6.43,6.43Z"/></svg>
