<?xml version="1.0" encoding="iso-8859-1"?>
<svg id="Layer_1" xmlns="http://www.w3.org/2000/svg" viewBox="0 0 24 24"><path d="M7.91,18a2.64,2.64,0,1,1,2.64-2.64A2.64,2.64,0,0,1,7.91,18Zm0-3.78A1.14,1.14,0,1,0,9.05,15.4,1.14,1.14,0,0,0,7.91,14.26Z"/><path d="M12,11.24A2.64,2.64,0,1,1,14.64,8.6,2.64,2.64,0,0,1,12,11.24Zm0-3.78A1.14,1.14,0,1,0,13.14,8.6,1.14,1.14,0,0,0,12,7.46Z"/><path d="M16.09,18a2.64,2.64,0,1,1,2.64-2.64A2.64,2.64,0,0,1,16.09,18Zm0-3.78a1.14,1.14,0,1,0,1.14,1.14A1.14,1.14,0,0,0,16.09,14.26Z"/></svg>
