<?xml version="1.0" encoding="iso-8859-1"?>
<svg id="Layer_1" xmlns="http://www.w3.org/2000/svg" viewBox="0 0 24 24"><path d="M23.63,19.58l-1.88-3c0-7.53-2.6-11.79-7.6-12.7a2.41,2.41,0,0,0,.29-1.13,2.44,2.44,0,0,0-4.87,0,2.41,2.41,0,0,0,.29,1.13c-5,.91-7.55,5.16-7.6,12.7l-1.88,3A.75.75,0,0,0,1,20.73H8.33a3.75,3.75,0,0,0,7.35,0H23a.75.75,0,0,0,.63-1.15ZM11.06,2.8a.94.94,0,1,1,.94.94A.94.94,0,0,1,11.06,2.8ZM12,22.23a2.25,2.25,0,0,1-2.11-1.5h4.22A2.25,2.25,0,0,1,12,22.23Zm-9.63-3,1.27-2a.75.75,0,0,0,.12-.4c0-7.92,2.62-11.6,8.25-11.6s8.25,3.69,8.25,11.6a.75.75,0,0,0,.12.4l1.27,2Z"/></svg>
