<?xml version="1.0" encoding="iso-8859-1"?>
<svg id="Layer_1" xmlns="http://www.w3.org/2000/svg" viewBox="0 0 24 24"><path d="M5,14.64A2.64,2.64,0,1,1,7.64,12,2.64,2.64,0,0,1,5,14.64Zm0-3.78A1.14,1.14,0,1,0,6.14,12,1.14,1.14,0,0,0,5,10.86Z"/><path d="M12,14.64A2.64,2.64,0,1,1,14.64,12,2.64,2.64,0,0,1,12,14.64Zm0-3.78A1.14,1.14,0,1,0,13.14,12,1.14,1.14,0,0,0,12,10.86Z"/><path d="M19,14.64A2.64,2.64,0,1,1,21.64,12,2.64,2.64,0,0,1,19,14.64Zm0-3.78A1.14,1.14,0,1,0,20.14,12,1.14,1.14,0,0,0,19,10.86Z"/></svg>
